<svg width="150" height="40" viewBox="0 0 150 40" fill="none" xmlns="http://www.w3.org/2000/svg">
<path d="M67.833 18.0143C67.3084 17.5991 66.7661 17.3913 66.2058 17.3913C65.6698 17.3913 65.1396 17.5929 64.6156 17.9962C64.0916 18.3995 63.8302 18.8568 63.8302 19.3698V30.8027C63.8302 31.3157 64.0916 31.7739 64.6156 32.1772C65.1396 32.5803 65.6698 32.7812 66.2058 32.7812C66.7661 32.7812 67.3084 32.5678 67.833 32.1404C68.3565 31.7132 68.6184 31.2305 68.6184 30.6925V19.4802C68.6184 18.9181 68.3565 18.4296 67.833 18.0143Z" fill="#504C4B"/>
<path d="M103.273 29.8431C103.004 29.256 102.835 28.9254 102.761 28.8518C102.371 28.4599 101.494 27.8355 100.13 26.9785C99.601 26.6388 99.1384 26.3379 98.7422 26.0758C98.0117 25.5922 98.0126 24.5207 98.7424 24.0364L100.86 22.6309C102.03 21.8544 102.688 21.3936 102.835 21.2479C103.273 20.6905 103.419 20.0113 103.273 19.2105C103.175 18.6769 102.888 18.2279 102.412 17.8641C101.936 17.5005 101.429 17.3181 100.892 17.3181C100.477 17.3181 99.9155 17.534 99.208 17.9654L93.7504 21.5662C93.3192 21.8506 92.7446 21.5415 92.7446 21.0249V9.30108C92.7446 8.89801 92.6799 8.49405 92.5195 8.12444C92.1334 7.23466 91.4042 6.78988 90.332 6.78988C89.3815 6.78988 88.6983 7.1606 88.2827 7.90206C88.0552 8.30802 87.9562 8.77355 87.9562 9.23907V30.8045C88.2727 32.123 89.0648 32.7812 90.332 32.7812C91.6723 32.7812 92.4767 32.0817 92.7446 30.6822C92.7446 29.4788 94.0834 28.7574 95.0878 29.4202C96.6176 30.4293 98.0376 31.3777 99.348 32.2657C100.057 32.7317 100.754 32.9035 101.438 32.7812C101.977 32.6837 102.429 32.39 102.795 31.9001C103.163 31.4105 103.346 30.8839 103.346 30.3207C103.346 30.1003 103.322 29.9414 103.273 29.8431Z" fill="#504C4B"/>
<path d="M85.5255 28.5859C85.1057 28.2422 84.5659 28.08 84.0232 28.08H78.4262C78.1568 28.08 77.9 28.0314 77.6511 27.9627C77.5793 27.9478 77.5057 27.9244 77.4291 27.892C76.2737 27.4709 75.4366 26.3549 75.4366 25.0393C75.4366 23.3668 76.7816 21.9988 78.4262 21.9988H84.0779C84.6099 21.9988 85.1388 21.8384 85.5492 21.5C86.0522 21.0858 86.3116 20.5056 86.3116 19.7492C86.3116 18.6658 85.8673 17.9302 84.9784 17.5429C84.6101 17.3826 84.2073 17.3179 83.8057 17.3179H77.9406C76.2097 17.3179 74.6193 18.0346 73.1696 19.4666C71.7195 20.8993 70.995 22.4848 70.995 24.2229V25.9128C70.995 27.6023 71.7135 29.1695 73.1515 30.6144C74.5892 32.0592 76.1492 32.7812 77.8307 32.7812H83.804C84.3491 32.7812 84.8927 32.6418 85.3444 32.3369C85.9893 31.9019 86.3116 31.2582 86.3116 30.4048C86.3116 29.6143 86.045 29.0113 85.5255 28.5859Z" fill="#504C4B"/>
<path d="M70.3425 13.7834L67.1826 10.8644C66.9263 10.6277 66.6018 10.5135 66.2765 10.5088C66.2589 10.5077 66.2417 10.5064 66.2241 10.5059C66.2067 10.5064 66.1895 10.5077 66.1721 10.5088C65.8469 10.5135 65.5222 10.6277 65.2659 10.8644L62.1058 13.7836C61.6329 14.2206 61.4879 14.9339 61.8104 15.4911C62.2646 16.2756 63.2989 16.3983 63.925 15.8199L66.2243 13.6959L68.5234 15.8199C69.1495 16.3985 70.1841 16.2756 70.638 15.4909C70.9606 14.9335 70.8154 14.2203 70.3425 13.7834Z" fill="#0063A6"/>
<path d="M43.1847 28.8581C40.8832 29.0858 38.9649 27.1677 39.1926 24.866C39.3612 23.1629 40.7388 21.7853 42.4421 21.6164C44.7439 21.3885 46.6622 23.307 46.4342 25.6088C46.2656 27.3118 44.8877 28.6894 43.1847 28.8581ZM44.1073 17.0277C42.404 16.7283 40.93 16.9273 39.6922 17.47V8.87305C39.4244 7.48384 38.62 6.78923 37.2796 6.78923C36.0124 6.78923 35.2204 7.44837 34.9041 8.76621V30.7675C34.9041 31.3289 35.2083 31.8172 35.8175 32.2318C36.3535 32.5981 36.9265 32.7806 37.5357 32.7806C38.1141 32.7806 38.5625 32.5854 38.8959 32.2173C39.9187 32.8497 41.1484 33.21 42.5619 33.21C47.9459 33.21 52.1126 27.9962 50.2873 22.3416C49.3907 19.5634 46.9827 17.5333 44.1073 17.0277Z" fill="#504C4B"/>
<path d="M114.742 28.7064C112.441 28.9344 110.522 27.0158 110.75 24.7141C110.919 23.011 112.296 21.6334 114 21.4648C116.301 21.2368 118.22 23.1553 117.992 25.4569C117.823 27.1601 116.446 28.5378 114.742 28.7064ZM115.58 17.0277C113.877 16.7281 112.403 16.9271 111.165 17.47V8.87305C110.897 7.48384 110.093 6.78923 108.753 6.78923C107.485 6.78923 106.693 7.44837 106.377 8.76621V30.7675C106.377 31.3289 106.681 31.817 107.29 32.2318C107.826 32.5981 108.399 32.7806 109.008 32.7806C109.587 32.7806 110.035 32.5854 110.369 32.2173C111.392 32.8497 112.621 33.21 114.035 33.21C119.419 33.21 123.585 27.9962 121.76 22.3416C120.863 19.5634 118.455 17.5333 115.58 17.0277Z" fill="#0063A6"/>
<path d="M142.494 28.6613C140.193 28.8893 138.274 26.9708 138.502 24.6692C138.671 22.9659 140.048 21.5883 141.752 21.4197C144.053 21.1917 145.972 23.1103 145.744 25.412C145.575 27.1151 144.197 28.4927 142.494 28.6613ZM142.642 17.1802C141.315 17.0932 140.057 17.3431 138.934 17.8414C138.921 17.847 138.909 17.8539 138.896 17.8597C136.157 19.0927 134.246 21.8411 134.246 25.0406C134.246 28.1501 136.052 30.8304 138.668 32.1116C138.786 32.1716 138.904 32.2318 139.024 32.2834C139.356 32.4252 139.702 32.5381 140.055 32.6342C140.059 32.6351 140.063 32.6362 140.066 32.6371C140.723 32.8147 141.41 32.918 142.123 32.918C142.836 32.918 143.523 32.8147 144.179 32.6371C144.183 32.6362 144.188 32.6347 144.192 32.6338C144.545 32.5379 144.89 32.4252 145.22 32.2836C145.341 32.2318 145.46 32.1709 145.58 32.1107C148.337 30.7594 150.194 27.8532 149.984 24.5294C149.736 20.6093 146.562 17.437 142.642 17.1802Z" fill="#0063A6"/>
<path d="M18.278 20.8967L11.6003 14.7276C11.0643 14.2328 10.3853 13.9939 9.70516 13.9843C9.66858 13.9821 9.63267 13.9792 9.59586 13.9781C9.55928 13.9792 9.52337 13.9821 9.48701 13.9843C8.8069 13.9939 8.12769 14.2328 7.5919 14.7276L0.914163 20.8967C-0.239055 21.9621 -0.311102 23.7775 0.754454 24.9305C1.81979 26.0837 3.63504 26.1558 4.78826 25.0905L9.59609 20.6489L14.4039 25.0905C15.5571 26.1558 17.3724 26.0837 18.4377 24.9305C19.5031 23.7775 19.4312 21.9621 18.278 20.8967Z" fill="#0063A6"/>
<path d="M18.278 34.4426L11.6003 28.2735C11.0643 27.7787 10.3853 27.5398 9.70516 27.5302C9.66858 27.528 9.63267 27.5251 9.59586 27.524C9.55928 27.5251 9.52337 27.528 9.48701 27.5302C8.8069 27.5398 8.12769 27.7787 7.5919 28.2735L0.914163 34.4426C-0.239055 35.508 -0.311102 37.3234 0.754454 38.4764C1.81979 39.6296 3.63504 39.7017 4.78826 38.6364L9.59609 34.1948L14.4039 38.6364C15.5571 39.7017 17.3724 39.6296 18.4377 38.4764C19.5031 37.3234 19.4312 35.508 18.278 34.4426Z" fill="#504C4B"/>
<path d="M18.278 7.52758L11.6003 1.35843C11.0643 0.863679 10.3853 0.624783 9.70516 0.615191C9.66858 0.61296 9.63267 0.610061 9.59586 0.608945C9.55928 0.610061 9.52337 0.61296 9.48701 0.615191C8.8069 0.624783 8.12769 0.863679 7.5919 1.35843L0.914163 7.52758C-0.239055 8.59291 -0.311102 10.4084 0.754454 11.5614C1.81979 12.7146 3.63504 12.7867 4.78826 11.7213L9.59609 7.27976L14.4039 11.7213C15.5571 12.7867 17.3724 12.7146 18.4377 11.5614C19.5031 10.4084 19.4312 8.59291 18.278 7.52758Z" fill="#504C4B"/>
<path d="M134.246 18.6636C134.196 18.4682 134.046 18.1272 133.705 17.7598C133.363 17.3924 132.887 17.2838 132.692 17.2586C132.326 17.1611 131.936 17.112 131.522 17.112C130.42 17.112 129.328 17.3721 128.245 17.8903C127.809 17.4428 127.202 17.1631 126.532 17.1631C125.216 17.1631 124.138 18.2405 124.138 19.5572V23.9807V28.0658V30.592C124.454 31.9143 125.247 32.5752 126.514 32.5752C127.854 32.5752 128.658 31.8777 128.926 30.482V28.066V28.0658V24.0907C128.927 23.7726 129.103 23.3934 129.457 22.9524C129.81 22.5114 130.145 22.2424 130.462 22.144C131.12 22.022 131.778 21.9116 132.436 21.8135C133.191 21.6176 133.74 21.14 134.081 20.381C134.301 19.8914 134.465 19.3003 134.246 18.6636Z" fill="#0063A6"/>
<path d="M62.1665 19.7894C62.1665 19.7867 62.1669 19.7842 62.1669 19.7816C62.1669 19.4809 62.1103 19.194 62.0117 18.9275C62.0083 18.9174 62.0061 18.9076 62.0025 18.8976C61.9842 18.8255 61.9459 18.7414 61.8883 18.6462C61.7154 18.3143 61.469 18.0279 61.171 17.8061C60.9441 17.5974 60.7581 17.4834 60.6133 17.4646C60.5158 17.4388 60.4164 17.4167 60.3153 17.3977C60.1192 17.3475 59.9149 17.3179 59.7032 17.3179C59.6698 17.3179 59.6374 17.3217 59.6044 17.323C59.5507 17.3212 59.4978 17.3181 59.4431 17.3181C58.3368 17.3181 57.2395 17.58 56.1519 18.1026C55.7172 17.6641 55.1158 17.391 54.4533 17.391C53.1366 17.391 52.0592 18.4684 52.0592 19.7854V24.1868V28.2937V30.7983C52.3755 32.1203 53.1678 32.7812 54.435 32.7812C55.7754 32.7812 56.5795 32.0837 56.8476 30.6881V28.2937V24.297C56.8476 23.9787 57.0245 23.5995 57.3778 23.1585C57.7309 22.7175 58.066 22.4485 58.3829 22.3501C58.6671 22.2975 58.9515 22.2479 59.2357 22.1995C59.3872 22.2288 59.5433 22.2453 59.7032 22.2453C60.9849 22.2453 62.0373 21.266 62.1551 20.0149C62.1629 19.9411 62.1667 19.8659 62.1665 19.7894Z" fill="#504C4B"/>
</svg>